<svg xmlns="http://www.w3.org/2000/svg" width="41.619" height="38" viewBox="0 0 41.619 38"><defs><style>.a{fill:#1d2933;}</style></defs><path class="a" d="M5.429,6.929V1.5H9.048V6.929h5.429v3.619H9.048v5.429H5.429V10.548H0V6.929Zm5.429,10.857V12.357h5.429V6.929H28.952l3.311,3.619H38a3.63,3.63,0,0,1,3.619,3.619V35.881A3.63,3.63,0,0,1,38,39.5H9.048a3.63,3.63,0,0,1-3.619-3.619v-18.1ZM23.524,34.071a9.048,9.048,0,1,0-9.048-9.048A9.051,9.051,0,0,0,23.524,34.071Zm-5.79-9.048a5.79,5.79,0,1,0,5.79-5.79A5.784,5.784,0,0,0,17.733,25.024Z" transform="translate(0 -1.5)"/></svg>