<svg xmlns="http://www.w3.org/2000/svg" width="105" height="105" viewBox="0 0 105 105"><defs><style>.a{fill:#798996;}.b{fill:#f9f7f5;}</style></defs><circle class="a" cx="52.5" cy="52.5" r="52.5"/><path class="b" d="M0,33.067C0,14.062,14.887,0,34.091,0S68.18,14.062,68.18,33.067,53.295,66.134,34.091,66.134a37.2,37.2,0,0,1-9.858-1.307,2.727,2.727,0,0,0-1.818.142l-6.789,2.983a2.727,2.727,0,0,1-3.835-2.415l-.2-6.079a2.756,2.756,0,0,0-.909-1.932A32.357,32.357,0,0,1,0,33.067Zm23.635-6.221-10,15.908a1.6,1.6,0,0,0,2.329,2.131l10.767-8.153a2,2,0,0,1,2.471,0L37.159,42.7a5.128,5.128,0,0,0,7.386-1.364l10-15.908a1.6,1.6,0,0,0-2.329-2.131L41.448,31.448a1.964,1.964,0,0,1-2.443,0l-7.954-5.966a5.113,5.113,0,0,0-7.414,1.364Z" transform="translate(18.411 18.409)"/></svg>