<svg xmlns="http://www.w3.org/2000/svg" xmlns:xlink="http://www.w3.org/1999/xlink" width="310.962" height="285.673" viewBox="0 0 310.962 285.673"><defs><style>.a{fill:#798996;}.b{fill:#d4d9dd;}.c,.d,.f{fill:none;stroke-miterlimit:10;}.c{stroke:#fff9b4;stroke-width:4px;}.d{stroke:#798996;}.d,.f{stroke-width:3px;}.e{fill:#1d2933;}.f{stroke:#1d2933;}.g{fill:url(#a);}.h{fill:#f1dc8d;}</style><linearGradient id="a" x1="1.499" y1="0.144" x2="1.682" y2="1.002" gradientUnits="objectBoundingBox"><stop offset="0" stop-color="#f4f6f7"/><stop offset="1" stop-color="#d4d9dd"/></linearGradient></defs><g transform="translate(0.016 0.001)"><path class="a" d="M130.9,230.11h46.71A14.59,14.59,0,0,1,192.2,244.7v4.4A22.89,22.89,0,0,1,169.3,272H139.2a22.89,22.89,0,0,1-22.89-22.89v-4.4a14.59,14.59,0,0,1,14.59-14.59Z" transform="translate(115.89 -41.09) rotate(24.09)"/><path class="b" d="M116.38,174.89s-5.63-8.71-12.25-26.87C95.8,125.13,94,39.87,156.51,9.51c58-28.18,131.8,10.18,150.05,63.64C331.1,145,245.73,216.27,221.93,221.08c-3.07.62-14.35,2-24.26,10.46-8.54,7.29-7.36,12.41-13.49,16.13-15.05,9.11-48.46-5.82-52.66-24.9-1.86-8.42,3.46-10.91,1.32-21.59C130.74,190.74,124.52,187.46,116.38,174.89Z"/><path class="c" d="M153.15,241c9.67,11.43,48-26.34,41-39.2-3.74-6.89-22.56-10.43-24.65,1-.81,4.46.85,11.53,2.62,12.91,5,3.88,15.39-33,10-39.76-4.91-6.16-26.3,7.91-30.46,39.71C150.72,222.43,148.94,236,153.15,241Z"/><circle class="d" cx="37.25" cy="37.25" r="37.25" transform="translate(89.85 54.45)"/><circle class="d" cx="37.25" cy="37.25" r="37.25" transform="translate(171.6 81.89)"/><circle class="e" cx="9" cy="9" r="9" transform="translate(116.21 78.6)"/><circle class="e" cx="9" cy="9" r="9" transform="translate(187.21 101.6)"/><path class="f" d="M135.22,150.89c4-.94,15-3,25.38,2.94a30.94,30.94,0,0,1,6.38,4.84"/><path class="g" d="M67.74,250.68c-8.58-1.43-14.37-19.24-14-33.19,1.2-40.25,54.62-70.63,63.81-63.23,5.28,4.25-2.76,22-13.42,45.56C95.15,219.72,80.2,252.75,67.74,250.68Z"/><path class="h" d="M19.75,69.79a5.47,5.47,0,0,1,5.57-5.57,27.17,27.17,0,0,0,11-2.72,19,19,0,0,0,7.73-7,19.79,19.79,0,0,0,2.86-10.81,20.21,20.21,0,0,0-2.58-10.31,18.58,18.58,0,0,0-7-7,19.48,19.48,0,0,0-9.83-2.51,21.19,21.19,0,0,0-9.62,2.23A25.06,25.06,0,0,0,10.27,32a8,8,0,0,1-3.56,2.09,4.86,4.86,0,0,1-4.11-.84A5.45,5.45,0,0,1,0,29.3a5.35,5.35,0,0,1,1.61-4.25A33.78,33.78,0,0,1,27.55,12.92,31.17,31.17,0,0,1,43,16.82a30,30,0,0,1,11.15,10.8,30.44,30.44,0,0,1,4.18,16.1,28.47,28.47,0,0,1-8.22,20.43,30.52,30.52,0,0,1-9.06,6.34,34,34,0,0,1-11.16,2.93c-.28,0-.28,0,0-.07a2.16,2.16,0,0,0,.84-.35V84.43a5.76,5.76,0,0,1-1.53,4,5.08,5.08,0,0,1-3.91,1.68,5.21,5.21,0,0,1-4-1.68,5.76,5.76,0,0,1-1.53-4Zm5.29,46a5.6,5.6,0,0,1-4.46-1.75,6.82,6.82,0,0,1-1.53-4.67v-2.79a6.57,6.57,0,0,1,1.53-4.6A5.76,5.76,0,0,1,25,100.32h1.3A5.76,5.76,0,0,1,30.76,102a6.57,6.57,0,0,1,1.53,4.6v2.79a6.82,6.82,0,0,1-1.53,4.67,5.6,5.6,0,0,1-4.46,1.75Z"/></g></svg>