<svg xmlns="http://www.w3.org/2000/svg" width="55" height="55" viewBox="0 0 55 55"><defs><style>.a{fill:#f9f7f5;}.b{fill:#85bc4e;}</style></defs><g transform="translate(-1689 -408)"><circle class="a" cx="27.5" cy="27.5" r="27.5" transform="translate(1689 408)"/><g transform="translate(1702.968 425.46)"><path class="b" d="M9.183,24.343.4,15.556a1.352,1.352,0,0,1,0-1.912l1.912-1.912a1.352,1.352,0,0,1,1.912,0l5.919,5.919L22.818,4.973a1.352,1.352,0,0,1,1.912,0l1.912,1.912a1.352,1.352,0,0,1,0,1.912L11.095,24.343A1.352,1.352,0,0,1,9.183,24.343Z" transform="translate(0 -4.577)"/></g></g></svg>