<svg xmlns="http://www.w3.org/2000/svg" width="55" height="55" viewBox="0 0 55 55"><defs><style>.a{fill:#f9f7f5;}.b{fill:#fe4444;}</style></defs><g transform="translate(7 7.154)"><circle class="a" cx="27.5" cy="27.5" r="27.5" transform="translate(-7 -7.154)"/><path class="b" d="M20.54,16.5h0l-5.5-5.5,5.5-5.5h0a.568.568,0,0,0,0-.8l-2.6-2.6a.568.568,0,0,0-.8,0h0l-5.5,5.5-5.5-5.5h0a.568.568,0,0,0-.8,0l-2.6,2.6a.568.568,0,0,0,0,.8h0l5.5,5.5-5.5,5.5h0a.568.568,0,0,0,0,.8l2.6,2.6a.568.568,0,0,0,.8,0h0l5.5-5.5,5.5,5.5h0a.568.568,0,0,0,.8,0l2.6-2.6a.568.568,0,0,0,0-.8Z" transform="translate(8.429 8.918)"/></g></svg>