<svg xmlns="http://www.w3.org/2000/svg" width="28.349" height="28.349" viewBox="0 0 28.349 28.349"><defs><style>.a{fill:#fefcfb;fill-rule:evenodd;}</style></defs><path class="a" d="M14.175,2.52a43.462,43.462,0,0,1,5.67.157,7.3,7.3,0,0,1,2.677.472A5.531,5.531,0,0,1,25.2,5.827,7.3,7.3,0,0,1,25.672,8.5c0,1.417.157,1.89.157,5.67a43.462,43.462,0,0,1-.157,5.67,7.3,7.3,0,0,1-.472,2.677A5.531,5.531,0,0,1,22.522,25.2a7.3,7.3,0,0,1-2.677.472c-1.417,0-1.89.157-5.67.157a43.462,43.462,0,0,1-5.67-.157A7.3,7.3,0,0,1,5.827,25.2,5.531,5.531,0,0,1,3.15,22.522a7.3,7.3,0,0,1-.472-2.677c0-1.417-.157-1.89-.157-5.67A43.462,43.462,0,0,1,2.677,8.5,7.3,7.3,0,0,1,3.15,5.827a5.657,5.657,0,0,1,1.1-1.575,2.663,2.663,0,0,1,1.575-1.1A7.3,7.3,0,0,1,8.5,2.677a43.462,43.462,0,0,1,5.67-.157m0-2.52A46.536,46.536,0,0,0,8.347.157a9.723,9.723,0,0,0-3.465.63,6.166,6.166,0,0,0-2.52,1.575A6.166,6.166,0,0,0,.787,4.882a7.176,7.176,0,0,0-.63,3.465A46.536,46.536,0,0,0,0,14.175,46.536,46.536,0,0,0,.157,20a9.723,9.723,0,0,0,.63,3.465,6.166,6.166,0,0,0,1.575,2.52,6.166,6.166,0,0,0,2.52,1.575,9.723,9.723,0,0,0,3.465.63,46.535,46.535,0,0,0,5.827.157A46.535,46.535,0,0,0,20,28.192a9.723,9.723,0,0,0,3.465-.63,6.608,6.608,0,0,0,4.095-4.095A9.723,9.723,0,0,0,28.192,20c0-1.575.157-2.047.157-5.827a46.535,46.535,0,0,0-.157-5.827,9.723,9.723,0,0,0-.63-3.465,6.165,6.165,0,0,0-1.575-2.52A6.166,6.166,0,0,0,23.467.787,9.723,9.723,0,0,0,20,.157,46.536,46.536,0,0,0,14.175,0m0,6.93A7.128,7.128,0,0,0,6.93,14.175,7.245,7.245,0,1,0,14.175,6.93m0,11.97A4.641,4.641,0,0,1,9.45,14.175,4.641,4.641,0,0,1,14.175,9.45,4.641,4.641,0,0,1,18.9,14.175,4.641,4.641,0,0,1,14.175,18.9m7.56-14.017a1.732,1.732,0,1,0,1.732,1.732,1.748,1.748,0,0,0-1.732-1.732"/></svg>