<svg xmlns="http://www.w3.org/2000/svg" width="459" height="348" viewBox="0 0 459 348"><defs><style>.a{fill:#f2f0d6;}.b{fill:#f1dc8d;}.c{fill:#1d2933;}.d{fill:#798996;}.e,.f,.h{fill:none;stroke-miterlimit:10;}.e{stroke:#fff9b4;stroke-width:4px;}.f{stroke:#798996;}.f,.h{stroke-width:3px;}.g{fill:#fffde1;}.h{stroke:#1d2933;}</style></defs><g transform="translate(30.191)"><path class="a" d="M194.807,36.391,181.927,6.058c-4.314-10.04-18.92-6.853-18.825,4.1l.276,33.115a10.065,10.065,0,0,1-5.824,9.27,9.645,9.645,0,0,1-10.628-1.773l-23.82-22.341c-7.894-7.4-20.007,1.616-15.529,11.577l13.355,30.05a10.233,10.233,0,0,1-1.634,10.92,9.668,9.668,0,0,1-10.444,2.786L78.236,73.294C68.09,69.824,60.6,83.1,68.616,90.355l24.2,21.882a10.2,10.2,0,0,1,2.871,10.675,9.867,9.867,0,0,1-8.462,6.9l-32.162,3.17c-10.655,1.051-12.216,16.3-2.01,19.6l30.834,9.908A10.007,10.007,0,0,1,90.7,171.02a10.126,10.126,0,0,1-4.925,9.8L57.651,197.108c-9.309,5.387-4.685,19.975,5.944,18.739L95.706,212.1a9.753,9.753,0,0,1,9.613,4.963,10.246,10.246,0,0,1-.614,11L85.5,254.639c-6.367,8.831,3.658,20.2,12.872,14.641l27.84-16.778a9.631,9.631,0,0,1,10.758.526,10.169,10.169,0,0,1,3.814,10.309L133.8,295.631c-2.321,10.685,11.371,16.928,17.582,8.009l18.756-26.933a9.709,9.709,0,0,1,10.036-4,9.939,9.939,0,0,1,7.58,7.83l6.453,32.408a9.773,9.773,0,0,0,19.239,0l6.445-32.408a9.939,9.939,0,0,1,7.58-7.83,9.709,9.709,0,0,1,10.036,4l18.764,26.924c6.212,8.919,19.894,2.649,17.582-8.009l-7-32.293a10.169,10.169,0,0,1,3.814-10.309,9.631,9.631,0,0,1,10.758-.526l27.849,16.778c9.214,5.554,19.239-5.837,12.872-14.641l-19.239-26.571a10.255,10.255,0,0,1-.6-11,9.762,9.762,0,0,1,9.609-4.965l32.111,3.744c10.646,1.236,15.262-13.352,5.953-18.739l-28.09-16.284a10.125,10.125,0,0,1-4.934-9.784,10.009,10.009,0,0,1,6.78-8.548l30.816-9.952c10.206-3.294,8.627-18.544-2.01-19.6l-32.162-3.126a9.869,9.869,0,0,1-8.4-6.9,10.2,10.2,0,0,1,2.831-10.631l24.156-21.918c8.058-7.294.569-20.6-9.576-17.07l-30.644,10.5A9.668,9.668,0,0,1,288.3,81.008a10.233,10.233,0,0,1-1.634-10.92l13.424-30.13c4.434-9.961-7.687-18.977-15.529-11.577l-23.82,22.341a9.646,9.646,0,0,1-10.65,1.836,10.064,10.064,0,0,1-5.854-9.289l.276-33.071c.095-10.95-14.554-14.129-18.825-4.1l-12.88,30.333a9.737,9.737,0,0,1-18.005-.044Z" transform="translate(3.053 -0.002)"/><path class="b" d="M438.341,192.43c-20-27.88-55-47.32-64-39.58-10.25,8.78,13,52.21,29.78,76.33,3.07,4.42,37.66,53.57,50.79,47.23C466.071,271,461.851,225.1,438.341,192.43Z" transform="translate(-371.821 -24.275)"/><path class="b" d="M31.848,239.4c6.43,5.53,23.35-1.4,33.52-10.51,29.31-26.33,18.57-85.62,7.3-87.84-6.48-1.28-14.71,16-25.63,38.87C37.818,199.26,22.508,231.35,31.848,239.4Z" transform="translate(297.451 -20.658)"/><path class="c" d="M152.365,373.51h41a3.42,3.42,0,0,0,2.34-5.91l-8.71-8.17a3.45,3.45,0,0,0-2.34-.92h-41a3.41,3.41,0,0,0-2.34,5.9l8.7,8.17A3.41,3.41,0,0,0,152.365,373.51Z" transform="translate(91.034 -42.51)"/><path class="c" d="M12.47,373.51H134.94a7.47,7.47,0,0,0,7.17-5.51l20.59-72.21a7.55,7.55,0,0,0-7.17-9.67H33.06a7.47,7.47,0,0,0-7.17,5.47L5.3,363.83a7.56,7.56,0,0,0,7.17,9.68Z" transform="translate(242.649 -42.51)"/><rect class="c" width="459" height="20" rx="10" transform="translate(-30.191 328)"/><path class="d" d="M4.845,371.51h133l23.06-77.83a2.49,2.49,0,0,0-2.44-3.17H33.235a5.81,5.81,0,0,0-5.61,4.11Z" transform="translate(244.803 -42.51)"/><path class="d" d="M14.59,46.82H61.3A14.59,14.59,0,0,0,75.89,32.23v-6.9A25.33,25.33,0,0,0,50.56,0H25.33A25.33,25.33,0,0,0,0,25.33v6.9A14.59,14.59,0,0,0,14.59,46.82Z" transform="translate(197.271 330.6) rotate(-166.9)"/><path class="b" d="M245.7,289.317s9.512-3.444,25.365-13.658c19.979-12.877,71.684-78.045,40.973-138.529-28.5-56.1-108.433-69.762-154.138-39.022C96.444,139.5,120.784,245.2,136.442,262.977c2.019,2.293,9.97,10.009,12.682,22.438,2.332,10.731-1.6,13.98.976,20.487,6.322,15.96,41.09,24.057,55.607,11.707,6.409-5.453,3.746-10.526,11.707-17.56C225.218,293.171,231.969,294.283,245.7,289.317Z" transform="translate(-10.75 -24.411)"/><path class="e" d="M255.643,324.94c-14.61,3.25-22.28-50-9-56,7.15-3.23,24.29,5.33,19,15.71-2.05,4-7.64,8.67-9.89,8.7-6.29.1,7.67-35.56,16.09-37.7,7.63-1.94,16.17,22.2.26,50C268.793,311.63,261.993,323.52,255.643,324.94Z" transform="translate(-81.562 -33.845)"/><ellipse class="f" cx="37.25" cy="37.25" rx="37.25" ry="37.25" transform="translate(234.341 151.034)"/><ellipse class="f" cx="37.25" cy="37.25" rx="37.25" ry="37.25" transform="translate(154.157 135.648)"/><path class="g" d="M241.121,152.46c-5.65-6.33,4.91-28.33,20.78-40.74,17.53-13.72,43.77-17.43,48.23-9.98,4.33,7.23-11.84,24.91-23.28,34.09C271.431,148.17,247.131,159.2,241.121,152.46Z" transform="translate(-108.932 -12.471)"/><path class="h" d="M180,215.51c-5.27-12.46-17.16-20-29-19s-18.87,10.42-20,12" transform="translate(115.605 -22.482)"/><path class="h" d="M192.99,243.51c2.12,9.31,9.42,16,17.73,16.74s14.31-5,15.28-5.95" transform="translate(14.287 -27.701)"/><path class="h" d="M220.84,188.32c10.35-8.7,24.39-10,34.47-3.73s12.06,17.86,12.35,19.78" transform="translate(-51.093 -20.94)"/><path class="b" d="M81.854,339.33a3.75,3.75,0,0,0,1.87-2c2.21-4.54,6.86-5.74,7.93-9.86,1.14-4.37-1.92-11.4-7.18-12.26-4.75-.78-9.59,3.76-10.39,7.88-.89,4.56,3.4,7.64,3.67,13.09a3.67,3.67,0,0,0,1,2.64,3.11,3.11,0,0,0,3.1.51Z" transform="translate(244.795 -42.51)"/><ellipse class="b" cx="3" cy="2" rx="3" ry="2" transform="translate(326.584 302.867) rotate(-169.2)"/></g></svg>