<svg xmlns="http://www.w3.org/2000/svg" xmlns:xlink="http://www.w3.org/1999/xlink" width="656.205" height="441" viewBox="0 0 656.205 441"><defs><style>.a{fill:#1d2933;}.b{fill:#798996;}.c{fill:#d4d9dd;}.d,.e,.f{fill:none;stroke-miterlimit:10;}.d{stroke:#fff9b4;stroke-width:4px;}.e{stroke:#798996;}.e,.f{stroke-width:3px;}.f{stroke:#1d2933;}.g{fill:#f4f6f7;}.h{fill:url(#a);}.i{fill:url(#b);}.j{fill:#f1dc8d;}</style><linearGradient id="a" y1="0.5" x2="1" y2="0.5" gradientUnits="objectBoundingBox"><stop offset="0" stop-color="#f4f6f7"/><stop offset="1" stop-color="#d4d9dd"/></linearGradient><linearGradient id="b" x1="0.339" y1="0.168" x2="0.587" y2="0.951" xlink:href="#a"/></defs><path class="a" d="M207.912,293.626H135l22.874-17.156h72.912Z" transform="translate(58.002 118.781)"/><path class="a" d="M220.206,329.016H45.117a10.679,10.679,0,0,1-10.251-7.82L5.431,217.9A10.794,10.794,0,0,1,15.681,204.08H190.769a10.679,10.679,0,0,1,10.251,7.82l29.436,103.292a10.794,10.794,0,0,1-10.251,13.825Z" transform="translate(2.147 87.68)"/><rect class="a" width="656.205" height="28.593" rx="10" transform="translate(0 412.407)"/><path class="b" d="M228.088,323.842H37.946L4.979,213.945a3.531,3.531,0,0,1,3.488-4.475H187.5a8.32,8.32,0,0,1,8.02,5.8Z" transform="translate(2.084 89.995)"/><rect class="b" width="108.481" height="53.583" rx="14.59" transform="translate(329.524 340.94) rotate(-13.1)"/><path class="c" d="M229.407,303.755s-13.939-5.047-37.171-20.015c-29.279-18.871-105.05-114.371-60.045-203.009C173.951-1.516,291.1-21.559,358.075,23.546c90.067,60.66,54.4,215.576,31.452,241.609-2.959,3.36-14.611,14.668-18.585,32.882-3.417,15.726,2.345,20.5-1.43,30.022-9.264,23.389-60.216,35.255-81.49,17.156-9.393-7.992-5.49-15.426-17.156-25.734C259.43,309.4,249.537,311.032,229.407,303.755Z" transform="translate(50.802 -0.001)"/><path class="d" d="M276.173,272.716c20.887,4.661,31.852-71.482,12.867-80.06-10.222-4.618-34.726,7.62-27.163,22.46,2.931,5.719,10.922,12.395,14.139,12.452,8.992.129-10.965-50.852-23-53.912-10.908-2.759-23.117,31.738-.372,71.482C257.374,253.688,267.1,270.686,276.173,272.716Z" transform="translate(103.025 74.542)"/><circle class="e" cx="53.254" cy="53.254" r="53.254" transform="translate(167.268 146.494)"/><circle class="e" cx="53.254" cy="53.254" r="53.254" transform="translate(297.365 129.338)"/><circle class="a" cx="12.867" cy="12.867" r="12.867" transform="translate(222.309 190.098)"/><circle class="a" cx="12.867" cy="12.867" r="12.867" transform="translate(318.095 181.52)"/><path class="f" d="M196.5,187.7c3.7-4.489,14.468-16.326,31.452-18.585a43.6,43.6,0,0,1,11.437,0" transform="translate(84.425 72.495)"/><path class="g" d="M339.268,93.827c8.077-9.05-7.02-40.487-29.708-58.244-25.062-19.557-62.575-24.9-68.952-14.268-6.19,10.336,16.927,35.627,33.282,48.736C295.936,87.708,330.676,103.463,339.268,93.827Z" transform="translate(102.934 6.847)"/><path class="h" d="M350.883,248.692c48.865-4.761,102.72,14.425,102.934,31.452.243,19.286-68.323,35.312-110.082,40.03-7.649.858-93.07,10.008-98.645-10.007C240.328,293.025,293.611,254.267,350.883,248.692Z" transform="translate(105.173 106.53)"/><path class="i" d="M221.281,337.9c-10.722,6.319-33.411-7.877-45.749-23.546C139.891,269.146,170.543,186.8,187.4,186.47c9.693-.186,17.156,26.648,27.163,62.261C222.9,278.811,236.835,328.762,221.281,337.9Z" transform="translate(68.322 80.113)"/><path class="j" d="M88.312,267.7a5.419,5.419,0,0,1-2.673-2.859c-3.16-6.491-9.807-8.22-11.337-14.1-1.63-6.262,2.745-16.312,10.265-17.542,6.791-1.1,13.71,5.39,14.854,11.266,1.272,6.533-4.861,10.922-5.247,18.728a5.29,5.29,0,0,1-1.43,3.774,4.518,4.518,0,0,1-4.432.729Z" transform="translate(31.777 100.141)"/><ellipse class="j" cx="4.289" cy="2.859" rx="4.289" ry="2.859" transform="translate(119.121 370.862) rotate(-10.8)"/></svg>