<svg xmlns="http://www.w3.org/2000/svg" xmlns:xlink="http://www.w3.org/1999/xlink" width="459" height="348" viewBox="0 0 459 348"><defs><style>.a{fill:#d4d9dd;}.b{fill:#1d2933;}.c{fill:#798996;}.d,.e,.f,.j{fill:none;stroke-miterlimit:10;}.d{stroke:#fff9b4;stroke-width:4px;}.e,.f{stroke:#798996;}.e{stroke-width:8px;}.f,.j{stroke-width:3px;}.g{fill:#f4f6f7;}.h{fill:url(#a);}.i{fill:url(#b);}.j{stroke:#1d2933;}.k{fill:url(#c);}.l{fill:#f1dc8d;}.m{fill:#f2f0d6;}.n{fill:#fbfbfb;}</style><linearGradient id="a" x1="1" y1="0.5" x2="0" y2="0.5" gradientUnits="objectBoundingBox"><stop offset="0" stop-color="#f4f6f7"/><stop offset="1" stop-color="#d4d9dd"/></linearGradient><linearGradient id="b" x1="1" y1="0.5" x2="0" y2="0.5" xlink:href="#a"/><linearGradient id="c" x1="1" y1="0.5" x2="0" y2="0.5" xlink:href="#a"/></defs><circle class="a" cx="58" cy="58" r="58" transform="translate(127 84.299)"/><rect class="b" width="459" height="20" rx="10" transform="translate(0 328)"/><rect class="c" width="75.88" height="37.48" rx="14.59" transform="translate(260.205 238.109) rotate(-13.1)"/><path class="a" d="M180.431,212.47s-9.75-3.53-26-14c-20.48-13.2-73.48-80-42-142,29.21-57.53,111.15-71.55,158-40,63,42.43,38,150.79,22,169-2.07,2.35-10.22,10.26-13,23-2.39,11,1.64,14.34-1,21-6.48,16.36-42.12,24.66-57,12-6.57-5.59-3.84-10.79-12-18C201.451,216.42,194.511,217.56,180.431,212.47Z" transform="translate(45.259 -0.001)"/><path class="d" d="M173.667,242.9c14.61,3.26,22.28-50,9-56-7.15-3.23-24.29,5.33-19,15.71,2,4,7.64,8.67,9.89,8.71,6.29.09-7.67-35.57-16.09-37.71-7.63-1.93-16.17,22.2-.26,50C160.517,229.59,167.317,241.48,173.667,242.9Z" transform="translate(121.263 -0.293)"/><circle class="e" cx="50.25" cy="50.25" r="50.25" transform="translate(112.69 104.271)"/><circle class="f" cx="37.25" cy="37.25" r="37.25" transform="translate(237.69 90.314)"/><circle class="b" cx="13.94" cy="13.94" r="13.94" transform="translate(162 141.072)"/><circle class="b" cx="10.5" cy="10.5" r="10.5" transform="translate(250.69 125.289)"/><path class="g" d="M195.586,71.42c5.65-6.33-4.91-28.32-20.79-40.74-17.55-13.72-43.76-17.42-48.23-10-4.32,7.23,11.85,24.92,23.29,34.09C165.226,67.14,189.566,78.16,195.586,71.42Z" transform="translate(136.024 -0.001)"/><path class="h" d="M304.048,271.48c32.41,11.35,72.19,7.26,75.17-4.28,3.37-13.06-40.56-35.34-68.15-45.48-5.05-1.86-61.56-22.31-68.69-9.59C236.3,223,266.068,258.17,304.048,271.48Z" transform="translate(-161.988 -0.352)"/><path class="i" d="M.911,244.76c-.3-8.48,15.68-17.36,29.16-19.58,38.88-6.39,78.42,39.08,73.1,49.27-3.06,5.85-21.67,1.47-46.36-4.33C35.951,265.22,1.341,257.08.911,244.76Z" transform="translate(354.439 -0.357)"/><path class="j" d="M231.5,179a12.14,12.14,0,0,1-22,0" transform="translate(18 -0.247)"/><path class="c" d="M366.07,192.47,323.74,240.6a11,11,0,0,0,16.52,14.54,9.341,9.341,0,0,0,.64-.8l37.67-51.87a8,8,0,0,0-12.5-10Z" transform="translate(-242.32 -0.319)"/><path class="k" d="M352.3,196.47c8.6-4.55,20.93-4.15,29,3,11,9.71,10.86,29,0,40-10.51,10.61-28.76,11-38,2C331.3,229.78,336.86,204.63,352.3,196.47Z" transform="translate(-267.3 -0.31)"/><path class="l" d="M390.78,308.11c-10.81-7.64-47.64-31.63-99.15-28.33A155.19,155.19,0,0,0,209,310.47" transform="translate(-140.78 -0.47)"/><path class="m" d="M204,282.47c5.29-5.19,7.22-12,8-17-5.36-2.89-35.05-18.26-71-7-39.51,12.37-54.87,47-57,52,28.15-18.07,51.29-22.09,68-22C171.62,288.57,191.86,294.38,204,282.47Z" transform="translate(163 -0.47)"/><path class="l" d="M255.271,305.47l-84.26,1.66s-1.74,22.34,39.26,22.34S255.271,305.47,255.271,305.47Z" transform="translate(32.729 -0.47)"/><path class="l" d="M21.05,308c11.3-8,49.78-33.05,103.61-29.6A162.26,162.26,0,0,1,211,310.47" transform="translate(226.95 -0.47)"/><path class="c" d="M394,309.78l-175-2.31c2.16,3.59,4.47,8.62,3,12.69-4.14,11.46-36.86,11.46-41,0-1.47-4.07.84-9.1,3-12.69L18,309.78,33.5,330l338-1.15Z" transform="translate(47 -0.47)"/><circle class="n" cx="6.5" cy="6.5" r="6.5" transform="translate(160 141.271)"/></svg>