<svg xmlns="http://www.w3.org/2000/svg" xmlns:xlink="http://www.w3.org/1999/xlink" width="438" height="331" viewBox="0 0 438 331"><defs><style>.a{fill:#d4d9dd;}.b{fill:#c0d0de;}.c{fill:#798996;}.d,.e,.f,.k{fill:none;stroke-miterlimit:10;}.d{stroke:#fff9b4;stroke-width:4px;}.e,.f{stroke:#798996;}.e{stroke-width:8px;}.f,.k{stroke-width:3px;}.g{fill:#1d2933;}.h{fill:#f4f6f7;}.i{fill:url(#a);}.j{fill:url(#b);}.k{stroke:#1d2933;}.l{fill:url(#c);}.m{fill:#f1dc8d;}.n{fill:#f2f0d6;}.o{fill:#fbfbfb;}</style><linearGradient id="a" y1="0.5" x2="1" y2="0.5" gradientUnits="objectBoundingBox"><stop offset="0" stop-color="#f4f6f7"/><stop offset="1" stop-color="#d4d9dd"/></linearGradient><linearGradient id="b" x1="0" y1="0.5" x2="1" y2="0.5" xlink:href="#a"/><linearGradient id="c" x1="0" y1="0.5" x2="1" y2="0.5" xlink:href="#a"/></defs><circle class="a" cx="55.327" cy="55.327" r="55.327" transform="translate(206.045 80.414)"/><rect class="b" width="438" height="18" rx="9" transform="translate(0 313)"/><rect class="c" width="72.383" height="35.753" rx="14.59" transform="translate(181.53 261.958) rotate(-166.9)"/><path class="a" d="M227.289,202.678s9.3-3.367,24.8-13.355c19.536-12.592,70.094-76.313,40.064-135.456C264.292-1.011,186.128-14.385,141.437,15.711c-60.1,40.475-36.249,143.841-20.986,161.211,1.975,2.242,9.749,9.787,12.4,21.94,2.28,10.493-1.564,13.679.954,20.032,6.181,15.606,40.179,23.523,54.373,11.447,6.267-5.332,3.663-10.293,11.447-17.17C207.238,206.446,213.858,207.533,227.289,202.678Z" transform="translate(-4.732 -0.001)"/><path class="d" d="M163.339,239.7c-13.937,3.11-21.253-47.7-8.585-53.419,6.82-3.081,23.171,5.084,18.124,14.986-1.908,3.816-7.288,8.27-9.434,8.309-6,.086,7.317-33.931,15.348-35.972,7.278-1.841,15.425,21.177.248,47.7C175.883,227.005,169.4,238.347,163.339,239.7Z" transform="translate(-6.831 -8.275)"/><circle class="e" cx="47.934" cy="47.934" r="47.934" transform="translate(234.481 99.466)"/><circle class="f" cx="35.533" cy="35.533" r="35.533" transform="translate(140.044 86.152)"/><circle class="g" cx="13.298" cy="13.298" r="13.298" transform="translate(256.717 134.571)"/><circle class="g" cx="10.016" cy="10.016" r="10.016" transform="translate(178.677 119.515)"/><path class="h" d="M127.319,68.908c-5.39-6.038,4.684-27.015,19.832-38.862,16.741-13.088,41.743-16.617,46.007-9.539,4.121,6.9-11.3,23.772-22.217,32.519C156.28,64.826,133.062,75.338,127.319,68.908Z" transform="translate(-5.8 -0.781)"/><path class="i" d="M313.467,268.554c-30.916,10.827-68.863,6.925-71.706-4.083-3.215-12.458,38.691-33.711,65.009-43.384,4.817-1.774,58.723-21.282,65.524-9.148C378.095,222.308,349.7,255.857,313.467,268.554Z" transform="translate(-11.134 -9.921)"/><path class="j" d="M98.915,243.829c.286-8.089-14.957-16.56-27.816-18.678-37.088-6.1-74.806,37.279-69.731,47,2.919,5.58,20.671,1.4,44.223-4.13C65.49,263.346,98.5,255.582,98.915,243.829Z" transform="translate(-0.042 -10.69)"/><path class="k" d="M209.5,179a11.58,11.58,0,0,0,20.986,0" transform="translate(-9.655 -8.485)"/><path class="c" d="M334.593,192.332l40.379,45.912a10.5,10.5,0,0,1-15.759,13.87,8.917,8.917,0,0,1-.611-.763l-35.934-49.479a7.635,7.635,0,0,1,11.924-9.539Z" transform="translate(-14.794 -9.037)"/><path class="l" d="M372.286,196.333c-8.2-4.34-19.965-3.959-27.664,2.862-10.493,9.262-10.359,27.663,0,38.157,10.026,10.121,27.435,10.493,36.249,1.908C392.318,228.107,387.014,204.117,372.286,196.333Z" transform="translate(-15.522 -9.213)"/><path class="m" d="M209,306.79c10.312-7.288,45.444-30.172,94.58-27.024A148.038,148.038,0,0,1,382.4,309.041" transform="translate(-9.632 -13.328)"/><path class="n" d="M91.631,281.176c-5.046-4.951-6.887-11.447-7.631-16.217,5.113-2.757,33.435-17.418,67.728-6.677,37.689,11.8,52.341,44.834,54.373,49.6-26.853-17.237-48.926-21.072-64.866-20.986C122.519,287,103.212,292.537,91.631,281.176Z" transform="translate(-3.871 -12.173)"/><path class="m" d="M171,305.47l80.377,1.583s1.66,21.31-37.451,21.31S171,305.47,171,305.47Z" transform="translate(-7.881 -14.527)"/><path class="m" d="M202.246,306.621c-10.779-7.631-47.486-31.527-98.835-28.236A154.781,154.781,0,0,0,21.05,308.977" transform="translate(-0.97 -13.264)"/><path class="c" d="M18,309.674l166.935-2.2c-2.06,3.425-4.264,8.223-2.862,12.105,3.949,10.932,35.161,10.932,39.11,0,1.4-3.882-.8-8.681-2.862-12.105l158.35,2.2-14.786,19.288-322.423-1.1Z" transform="translate(-0.83 -14.619)"/><circle class="o" cx="6.2" cy="6.2" r="6.2" transform="translate(272.819 134.76)"/></svg>