<svg id="Layer_1" data-name="Layer 1" xmlns="http://www.w3.org/2000/svg" viewBox="0 0 14.06 11.8"><defs><style>.cls-1{fill:#798996;}</style></defs><rect class="cls-1" y="2.95" width="3.54" height="8.26" rx="1"/><path class="cls-1" d="M9.74,16.59a1.39,1.39,0,0,0,.66,1.22l1.12.64a1.89,1.89,0,0,0,1.1.35h4.82a.66.66,0,0,0,.66-.55L19,12.83a1.44,1.44,0,0,0-.28-1.17,1.32,1.32,0,0,0-1-.5s-3.32.64-4,0,0-3.47,0-3.47A.68.68,0,0,0,13.06,7h-.47a1.34,1.34,0,0,0-1.21.84L9.89,11.46a2.29,2.29,0,0,0-.15.82Z" transform="translate(-5 -7)"/></svg>