<svg xmlns="http://www.w3.org/2000/svg" width="25" height="25" viewBox="0 0 25 25"><defs><style>.a{fill:#f9f7f5;}.b{fill:#798996;}</style></defs><circle class="a" cx="12.5" cy="12.5" r="12.5"/><g transform="translate(5 7)"><rect class="b" width="3.54" height="8.26" rx="1" transform="translate(0 2.95)"/><path class="b" d="M8,13.593a1.4,1.4,0,0,0,.664,1.215l1.115.646a1.961,1.961,0,0,0,1.1.347H15.7a.671.671,0,0,0,.664-.555l.929-5.421a1.435,1.435,0,0,0-.284-1.162,1.3,1.3,0,0,0-1.043-.5s-3.318.636-3.982,0,0-3.471,0-3.471A.679.679,0,0,0,11.318,4h-.465a1.327,1.327,0,0,0-1.214.84L8.153,8.463A2.166,2.166,0,0,0,8,9.282Z" transform="translate(-3.26 -4)"/></g></svg>