<svg xmlns="http://www.w3.org/2000/svg" width="35.694" height="77.333" viewBox="0 0 35.694 77.333"><defs><style>.a{fill:#1d2933;}.b{fill:#798996;}</style></defs><path class="a" d="M47.426,214.61l-.82.82-5.588,5.589L35.43,215.43l-.82-.82c.463.069.929.129,1.4.182a45.351,45.351,0,0,0,10.02,0C46.5,214.739,46.967,214.679,47.426,214.61Z" transform="translate(-23.181 -143.685)"/><path class="a" d="M48.357,141.557a11.921,11.921,0,0,0-11.127-.02l1.134-10.906L38.9,125.5l.056-.552.288.053a20.756,20.756,0,0,0,3.3.294h.416A20.757,20.757,0,0,0,46.285,125l.251-.046.053.489.562,5.172Z" transform="translate(-24.936 -83.656)"/><path class="a" d="M38.384,6.61a23.342,23.342,0,0,0-3.206,1.018,23.881,23.881,0,0,0-10.936,8.831q-.578.853-1.081,1.761a22.427,22.427,0,0,0-1.213-1.956,23.58,23.58,0,0,0-2.644-3.2,24.092,24.092,0,0,0-3.087-2.644,23.93,23.93,0,0,0-5.076-2.783A23.342,23.342,0,0,0,7.94,6.61,20.635,20.635,0,0,1,20.65.152c.592-.073,1.19-.119,1.8-.152h1.183c.492,0,.991.04,1.467.086a20.394,20.394,0,0,1,2.786.446A20.821,20.821,0,0,1,38.384,6.61Z" transform="translate(-5.325)"/><path class="b" d="M37.479,181.738l-4.508,4.508-1.418,1.418c-.3.079-.611.152-.919.221l-.387.089q-1.091.235-2.2.413l-.185.03q-1.507.238-3.05.36-1.7.142-3.437.142t-3.437-.142q-1.54-.122-3.05-.36h-.1q-1.153-.185-2.29-.426c-.208-.046-.416-.093-.625-.145s-.456-.106-.681-.165l-1.418-1.418L5.27,181.738a5.949,5.949,0,0,1,7.327-.856h0a5.949,5.949,0,0,1,2.069,2.155,7.272,7.272,0,0,1,.76-.77,8.513,8.513,0,0,1,1.566-1.124,8.923,8.923,0,0,1,8.758,0,8.609,8.609,0,0,1,1.633,1.183,7.408,7.408,0,0,1,.694.711,5.949,5.949,0,0,1,1.811-1.983,2.859,2.859,0,0,1,.258-.169,5.949,5.949,0,0,1,7.33.853Z" transform="translate(-3.538 -120.51)"/><path class="b" d="M84.529,133.938a8.923,8.923,0,0,0-9.485-1.3l-.872-8.008-.449-4.141-.492-4.531a20.754,20.754,0,0,0,6.534-3.473L82.6,125.25l.711,3.2Z" transform="translate(-49.038 -75.314)"/><path class="b" d="M11.522,115.841,11,120.825l-.42,4.055-.8,7.641A8.923,8.923,0,0,0,.58,133.942L1.8,128.452l.711-3.2L5.346,112.48a20.659,20.659,0,0,0,6.177,3.361Z" transform="translate(-0.398 -75.307)"/><path class="b" d="M32.056,30.26a20.906,20.906,0,0,0-10.334,7.667h0a20.678,20.678,0,0,0-2.214,3.966l-.05.116A20.781,20.781,0,0,0,17.865,50a20.781,20.781,0,0,0-1.593-8c-.05-.119-.1-.238-.152-.354h0a20.764,20.764,0,0,0-2.532-4.28,20.837,20.837,0,0,0-3.378-3.493A20.771,20.771,0,0,0,3.674,30.26a17.866,17.866,0,0,0,7.8,27.486,17.354,17.354,0,0,0,2.888.849c.509.106,1.028.185,1.553.241.228.026.459.046.691.059.416.033.836.046,1.262.046a11.425,11.425,0,0,0,1.262-.046,6.023,6.023,0,0,0,.691-.059c.509-.056,1.011-.132,1.5-.231A17.122,17.122,0,0,0,23.89,57.9,17.846,17.846,0,0,0,32.056,30.26ZM11.917,41.384a2.974,2.974,0,1,1-2.974-3.278,2.716,2.716,0,0,1,.33.02,2.974,2.974,0,0,1,2.644,2.955ZM27.75,43.9a2.892,2.892,0,0,1-.962.155,2.974,2.974,0,0,1-2.974-2.67v-.3a2.974,2.974,0,0,1,2.644-2.955,2.881,2.881,0,0,1,.33-.02,2.974,2.974,0,0,1,.945,5.793Z" transform="translate(-0.029 -20.26)"/></svg>