<svg xmlns="http://www.w3.org/2000/svg" width="28.349" height="22.994" viewBox="0 0 28.349 22.994"><defs><style>.a{fill:#fefcfb;fill-rule:evenodd;}</style></defs><path class="a" d="M46.977,24.994c10.71,0,16.537-8.82,16.537-16.537V7.67a12.8,12.8,0,0,0,2.835-2.992,13.074,13.074,0,0,1-3.307.945,6.128,6.128,0,0,0,2.52-3.15A14.446,14.446,0,0,1,61.939,3.89,5.625,5.625,0,0,0,57.687,2,5.917,5.917,0,0,0,51.86,7.827a3.071,3.071,0,0,0,.157,1.26,16.283,16.283,0,0,1-11.97-6.142,6.032,6.032,0,0,0-.787,2.992,6.258,6.258,0,0,0,2.52,4.882,5.309,5.309,0,0,1-2.677-.787h0a5.756,5.756,0,0,0,4.725,5.67,4.855,4.855,0,0,1-1.575.157,2.68,2.68,0,0,1-1.1-.157A5.967,5.967,0,0,0,46.662,19.8a11.891,11.891,0,0,1-7.245,2.52A4.36,4.36,0,0,1,38,22.159a14.866,14.866,0,0,0,8.977,2.835" transform="translate(-38 -2)"/></svg>